<svg width="4290" height="2163" xmlns="http://www.w3.org/2000/svg" xmlns:xlink="http://www.w3.org/1999/xlink" xml:space="preserve" overflow="hidden"><defs><clipPath id="clip0"><rect x="1951" y="1153" width="331" height="952"/></clipPath><clipPath id="clip1"><rect x="1951" y="1153" width="331" height="952"/></clipPath><clipPath id="clip2"><rect x="2480" y="555" width="368" height="1057"/></clipPath><clipPath id="clip3"><rect x="2480" y="555" width="368" height="1057"/></clipPath><clipPath id="clip4"><rect x="2836" y="555" width="369" height="1057"/></clipPath><clipPath id="clip5"><rect x="2836" y="555" width="369" height="1057"/></clipPath><clipPath id="clip6"><rect x="3194" y="561" width="367" height="1058"/></clipPath><clipPath id="clip7"><rect x="3194" y="561" width="367" height="1058"/></clipPath><clipPath id="clip8"><rect x="2480" y="-53" width="368" height="1058"/></clipPath><clipPath id="clip9"><rect x="2480" y="-53" width="368" height="1058"/></clipPath><clipPath id="clip10"><rect x="2836" y="-53" width="369" height="1058"/></clipPath><clipPath id="clip11"><rect x="2836" y="-53" width="369" height="1058"/></clipPath><clipPath id="clip12"><rect x="3194" y="-48" width="367" height="1058"/></clipPath><clipPath id="clip13"><rect x="3194" y="-48" width="367" height="1058"/></clipPath><clipPath id="clip14"><rect x="3917" y="513" width="331" height="952"/></clipPath><clipPath id="clip15"><rect x="3917" y="513" width="331" height="952"/></clipPath></defs><g transform="translate(-64 55)"><g><g><g><g><path d="M906.143 1328.48C984.487 1357.66 1044.66 1388.83 1084.25 1422.48 1106.53 1440.35 1119.97 1467.01 1121.08 1495.55L1145.5 1690.41C1147.5 1705.48 1140.93 1720.42 1128.48 1729.14 1108.7 1742.16 1087.59 1753.04 1065.5 1761.57L1065.5 1791.52C1093.13 1781.51 1119.49 1768.28 1144.03 1752.09 1165.07 1737.53 1176.23 1712.44 1172.97 1687.06L1148.88 1494.23C1147.22 1458.05 1130.29 1424.28 1102.31 1401.29 1065 1371.13 1023.56 1346.45 979.262 1328.01 979.638 1289.5 981.792 1064.89 982.181 975.789 982.642 952.066 979.864 928.392 973.927 905.42 954.834 834.891 906.586 775.842 841.277 743.075 830.623 737.824 817.94 738.894 808.316 745.855L806.76 746.966 800.604 738.365C794.139 729.118 784.286 722.796 773.187 720.773 699.967 707.937 624.855 728.681 568.599 777.273 512.654 826.463 481.233 897.808 482.709 972.287L484.932 1328.02C440.589 1346.46 399.114 1371.16 361.773 1401.36 333.784 1424.35 316.856 1458.12 315.194 1494.3L291.127 1687.23C287.945 1712.55 299.111 1737.55 320.1 1752.08 344.595 1768.25 370.91 1781.48 398.5 1791.5L398.5 1761.54C376.475 1753 355.423 1742.13 335.705 1729.12 323.29 1720.44 316.727 1705.58 318.668 1690.55L342.917 1496.98 343.028 1495.59C344.124 1467.06 357.543 1440.4 379.81 1422.53 420.039 1388.23 477.456 1358.06 557.857 1328.48 595.487 1354.34 661.131 1370.17 732 1370.17 802.869 1370.17 868.513 1354.34 906.143 1328.48ZM546.352 1303.2C534.633 1307.52 523.4 1311.86 512.654 1316.22L510.5 972.107C509.076 905.826 536.923 842.285 586.622 798.409 636.554 755.213 703.266 736.767 768.296 748.175 772.216 748.98 775.672 751.27 777.94 754.567L792.155 774.438C796.611 780.668 805.27 782.117 811.512 777.676L824.366 768.519C825.641 767.552 827.338 767.339 828.812 767.963 887.032 797.203 930.032 849.866 947.038 912.758 952.32 933.297 954.775 954.46 954.333 975.664 953.972 1058.09 952.096 1256.72 951.554 1316.29 941.077 1312.05 930.164 1307.83 918.816 1303.62L874.349 1285.37C863.902 1281.11 857.072 1270.95 857.062 1259.67L857.062 1213.28C901.101 1176.4 926.543 1121.9 926.542 1064.46L926.542 994.979C926.542 971.955 907.878 953.292 884.854 953.292L579.146 953.292C556.122 953.292 537.458 971.955 537.458 994.979L537.458 1064.46C537.465 1121.84 562.861 1176.27 606.826 1213.14L606.826 1259.61C606.865 1270.9 600.066 1281.1 589.623 1285.4ZM565.25 1064.46 565.25 994.979C565.25 987.304 571.471 981.083 579.146 981.083L884.854 981.083C892.529 981.083 898.75 987.304 898.75 994.979L898.75 1064.46C898.75 1156.55 824.093 1231.21 732 1231.21 639.907 1231.21 565.25 1156.55 565.25 1064.46ZM732 1342.38C683.415 1343.49 635.156 1334.17 590.485 1315.03L600.212 1311.05C621.108 1302.54 634.76 1282.22 634.729 1259.65L634.729 1232.6C694.811 1267.72 769.153 1267.76 829.271 1232.7L829.271 1259.65C829.231 1282.21 842.864 1302.54 863.746 1311.07L873.474 1315.06C828.815 1334.18 780.57 1343.5 732 1342.38Z" fill="#000000" fill-rule="nonzero" fill-opacity="1"/><path d="M1037.71 1502.73C1037.63 1475.49 1015.48 1453.47 988.239 1453.54 988.211 1453.54 988.184 1453.54 988.156 1453.54L475.538 1453.54C448.362 1453.54 426.322 1475.56 426.292 1502.73L426.292 1817.47 329.021 1817.47 329.021 1849.07C329.203 1876.18 351.162 1898.09 378.268 1898.21L1085.9 1898.21C1112.96 1898 1134.83 1876.08 1134.98 1849.02L1134.98 1817.47 1037.71 1817.47ZM1107.19 1845.27 1107.19 1848.96C1107.11 1860.74 1097.62 1870.28 1085.84 1870.42L378.323 1870.42C366.502 1870.38 356.911 1860.84 356.812 1849.02L356.812 1845.27 454.083 1845.27 454.083 1502.73C454.099 1490.9 463.705 1481.32 475.538 1481.33L988.573 1481.33C1000.36 1481.38 1009.9 1490.94 1009.92 1502.73L1009.92 1845.27Z" fill="#000000" fill-rule="nonzero" fill-opacity="1"/><path d="M686.227 1747.86 711.934 1758.56 776.967 1601.25 751.399 1590.55 686.227 1747.86Z" fill="#000000" fill-rule="nonzero" fill-opacity="1"/><path d="M640.51 1592.92 562.554 1670.87 640.51 1748.83 660.103 1729.23 601.879 1670.87 660.103 1612.51 640.51 1592.92Z" fill="#000000" fill-rule="nonzero" fill-opacity="1"/><path d="M803.508 1612.51 861.732 1670.87 803.508 1729.23 823.101 1748.83 901.057 1670.87 823.101 1592.92 803.508 1612.51Z" fill="#000000" fill-rule="nonzero" fill-opacity="1"/></g></g></g><path d="M0 0 0.000360892 415.752" stroke="#FF0000" stroke-width="20.625" stroke-linecap="butt" stroke-linejoin="miter" stroke-miterlimit="8" stroke-opacity="1" fill="none" fill-rule="evenodd" transform="matrix(1 0 0 -1 4081.5 1663.25)"/><path d="M2470.5 572.5 3596.73 572.5" stroke="#FF0000" stroke-width="20.625" stroke-linecap="butt" stroke-linejoin="miter" stroke-miterlimit="8" stroke-opacity="1" fill="none" fill-rule="evenodd"/><path d="M2464.5 1109.5 3590.73 1109.5" stroke="#FF0000" stroke-width="20.625" stroke-linecap="butt" stroke-linejoin="miter" stroke-miterlimit="8" stroke-opacity="1" fill="none" fill-rule="evenodd"/><path d="M1111.5 1863.5 2013.3 1863.5" stroke="#FF0000" stroke-width="20.625" stroke-linecap="butt" stroke-linejoin="miter" stroke-miterlimit="8" stroke-opacity="1" fill="none" fill-rule="evenodd"/><rect x="506.5" y="1317.5" width="77" height="147" stroke="#000000" stroke-width="4.58333" stroke-linecap="butt" stroke-linejoin="miter" stroke-miterlimit="8" stroke-opacity="1" fill="#000000" fill-opacity="1"/><rect x="891.5" y="1308.5" width="76.0003" height="165" stroke="#000000" stroke-width="4.58333" stroke-linecap="butt" stroke-linejoin="miter" stroke-miterlimit="8" stroke-opacity="1" fill="#000000" fill-opacity="1"/><text fill="#000000" fill-opacity="1" font-family="Calibri,Calibri_MSFontService,sans-serif" font-style="normal" font-variant="normal" font-weight="400" font-stretch="normal" font-size="83" text-anchor="start" direction="ltr" writing-mode="lr-tb" unicode-bidi="normal" text-decoration="none" transform="matrix(1 0 0 1 1910.85 2007)">Login node</text><path d="M2081.5 828.5 2081.5 1363.27" stroke="#FF0000" stroke-width="20.625" stroke-linecap="butt" stroke-linejoin="miter" stroke-miterlimit="8" stroke-opacity="1" fill="none" fill-rule="evenodd"/><path d="M0 0 393.954 0.000360892" stroke="#FF0000" stroke-width="20.625" stroke-linecap="butt" stroke-linejoin="miter" stroke-miterlimit="8" stroke-opacity="1" fill="none" fill-rule="evenodd" transform="matrix(-1 0 0 1 2470.45 832.5)"/><path d="M0 0 0.000360892 282.386" stroke="#FF0000" stroke-width="20.625" stroke-linecap="butt" stroke-linejoin="miter" stroke-miterlimit="8" stroke-opacity="1" fill="none" fill-rule="evenodd" transform="matrix(1 0 0 -1 2470.5 843.886)"/><path d="M0 0 0.000360892 282.386" stroke="#FF0000" stroke-width="20.625" stroke-linecap="butt" stroke-linejoin="miter" stroke-miterlimit="8" stroke-opacity="1" fill="none" fill-rule="evenodd" transform="matrix(1 0 0 -1 2470.5 1114.89)"/><path d="M3585.5 572.5 3585.5 1109.77" stroke="#FF0000" stroke-width="20.625" stroke-linecap="butt" stroke-linejoin="miter" stroke-miterlimit="8" stroke-opacity="1" fill="none" fill-rule="evenodd"/><text fill="#000000" fill-opacity="1" font-family="Calibri,Calibri_MSFontService,sans-serif" font-style="normal" font-variant="normal" font-weight="400" font-stretch="normal" font-size="83" text-anchor="start" direction="ltr" writing-mode="lr-tb" unicode-bidi="normal" text-decoration="none" transform="matrix(1 0 0 1 2764.04 1446)">Compute nodes</text><path d="M3585.5 844.5 3951.7 844.5" stroke="#FF0000" stroke-width="20.625" stroke-linecap="butt" stroke-linejoin="miter" stroke-miterlimit="8" stroke-opacity="1" fill="none" fill-rule="evenodd"/><text fill="#000000" fill-opacity="1" font-family="Calibri,Calibri_MSFontService,sans-serif" font-style="normal" font-variant="normal" font-weight="400" font-stretch="normal" font-size="83" text-anchor="start" direction="ltr" writing-mode="lr-tb" unicode-bidi="normal" text-decoration="none" transform="matrix(1 0 0 1 3526.31 2012)">Shared storage disks</text><text fill="#000000" fill-opacity="1" font-family="Calibri,Calibri_MSFontService,sans-serif" font-style="normal" font-variant="normal" font-weight="400" font-stretch="normal" font-size="83" text-anchor="start" direction="ltr" writing-mode="lr-tb" unicode-bidi="normal" text-decoration="none" transform="matrix(1 0 0 1 3906.15 652)">File server</text><text fill="#000000" fill-opacity="1" font-family="Calibri,Calibri_MSFontService,sans-serif" font-style="normal" font-variant="normal" font-weight="400" font-stretch="normal" font-size="83" text-anchor="start" direction="ltr" writing-mode="lr-tb" unicode-bidi="normal" text-decoration="none" transform="matrix(1 0 0 1 665.986 1989)">User</text><g clip-path="url(#clip0)"><g clip-path="url(#clip1)"><g><path d="M89.039 247.39 69.2526 247.39 69.2526 583.878 544.127 583.878 544.127 247.39 89.039 247.39ZM524.341 564.092 89.039 564.092 89.039 267.176 524.341 267.176Z" fill="#000000" fill-rule="nonzero" fill-opacity="1" transform="matrix(1 0 0 1.00026 1331.25 1154)"/><path d="M554.021 197.865 59.3593 197.865C37.5309 197.93 19.8516 215.609 19.7864 237.437L19.7864 593.781C19.8571 615.608 37.5331 633.284 59.3593 633.354L257.224 633.354 257.224 712.5 158.292 712.5 158.292 732.287 455.088 732.287 455.088 712.5 356.156 712.5 356.156 633.354 554.021 633.354C575.847 633.284 593.523 615.608 593.594 593.781L593.594 237.487C593.556 215.639 575.869 197.93 554.021 197.865ZM336.37 712.54 277.01 712.54 277.01 633.394 336.37 633.394ZM573.807 593.821C573.807 604.749 564.949 613.607 554.021 613.607L59.3593 613.607C48.4316 613.607 39.5729 604.749 39.5729 593.821L39.5729 237.487C39.5729 226.559 48.4316 217.7 59.3593 217.7L554.021 217.7C564.949 217.7 573.807 226.559 573.807 237.487Z" fill="#000000" fill-rule="nonzero" fill-opacity="1" transform="matrix(1 0 0 1.00026 1331.25 1154)"/><path d="M890.39 197.865 692.526 197.865C670.671 197.865 652.953 215.582 652.953 237.437L652.953 692.526C652.953 714.381 670.671 732.099 692.526 732.099L890.39 732.099C912.245 732.099 929.963 714.381 929.963 692.526L929.963 237.437C929.963 215.582 912.245 197.865 890.39 197.865ZM910.177 692.526C910.177 703.454 901.318 712.312 890.39 712.312L692.526 712.312C681.598 712.312 672.739 703.454 672.739 692.526L672.739 237.437C672.739 226.509 681.598 217.651 692.526 217.651L890.39 217.651C901.318 217.651 910.177 226.509 910.177 237.437Z" fill="#000000" fill-rule="nonzero" fill-opacity="1" transform="matrix(1 0 0 1.00026 1331.25 1154)"/><path d="M712.312 277.01 870.604 277.01 870.604 296.797 712.312 296.797Z" fill="#000000" fill-rule="nonzero" fill-opacity="1" transform="matrix(1 0 0 1.00026 1331.25 1154)"/><path d="M712.312 336.37 870.604 336.37 870.604 356.156 712.312 356.156Z" fill="#000000" fill-rule="nonzero" fill-opacity="1" transform="matrix(1 0 0 1.00026 1331.25 1154)"/><path d="M806.298 638.113C806.298 646.309 799.654 652.953 791.458 652.953 783.262 652.953 776.618 646.309 776.618 638.113 776.618 629.917 783.262 623.273 791.458 623.273 799.654 623.273 806.298 629.917 806.298 638.113Z" fill="#000000" fill-rule="nonzero" fill-opacity="1" transform="matrix(1 0 0 1.00026 1331.25 1154)"/></g></g></g><g><g><g><path d="M3757.69 1908.56 3757.69 1702.31C3757.69 1682.22 3706.33 1671.37 3658 1671.37 3609.67 1671.37 3558.31 1682.22 3558.31 1702.31L3558.31 1908.56C3558.31 1928.66 3609.67 1939.5 3658 1939.5 3706.33 1939.5 3757.69 1928.66 3757.69 1908.56ZM3658 1678.25C3711.12 1678.25 3750.81 1690.97 3750.81 1702.31 3750.81 1713.66 3711.12 1726.37 3658 1726.37 3604.88 1726.37 3565.19 1713.66 3565.19 1702.31 3565.19 1690.97 3604.88 1678.25 3658 1678.25ZM3565.19 1714.21C3580.76 1726.65 3620.3 1733.25 3658 1733.25 3695.7 1733.25 3735.24 1726.65 3750.81 1714.21L3750.81 1771.06C3750.81 1782.41 3711.12 1795.12 3658 1795.12 3604.88 1795.12 3565.19 1782.41 3565.19 1771.06ZM3565.19 1782.96C3580.76 1795.4 3620.3 1802 3658 1802 3695.7 1802 3735.24 1795.4 3750.81 1782.96L3750.81 1839.81C3750.81 1851.16 3711.12 1863.87 3658 1863.87 3604.88 1863.87 3565.19 1851.16 3565.19 1839.81ZM3565.19 1908.56 3565.19 1851.71C3580.76 1864.15 3620.3 1870.75 3658 1870.75 3695.7 1870.75 3735.24 1864.15 3750.81 1851.71L3750.81 1908.56C3750.81 1919.91 3711.12 1932.62 3658 1932.62 3604.88 1932.62 3565.19 1919.91 3565.19 1908.56Z" fill="#000000" fill-rule="nonzero" fill-opacity="1"/><path d="M3733.62 1760.75C3733.62 1764.55 3730.55 1767.62 3726.75 1767.62 3722.95 1767.62 3719.87 1764.55 3719.87 1760.75 3719.87 1756.95 3722.95 1753.87 3726.75 1753.87 3730.55 1753.87 3733.62 1756.95 3733.62 1760.75Z" fill="#000000" fill-rule="nonzero" fill-opacity="1"/><path d="M3733.62 1829.5C3733.62 1833.3 3730.55 1836.37 3726.75 1836.37 3722.95 1836.37 3719.87 1833.3 3719.87 1829.5 3719.87 1825.7 3722.95 1822.62 3726.75 1822.62 3730.55 1822.62 3733.62 1825.7 3733.62 1829.5Z" fill="#000000" fill-rule="nonzero" fill-opacity="1"/><path d="M3733.62 1898.25C3733.62 1902.05 3730.55 1905.12 3726.75 1905.12 3722.95 1905.12 3719.87 1902.05 3719.87 1898.25 3719.87 1894.45 3722.95 1891.37 3726.75 1891.37 3730.55 1891.37 3733.62 1894.45 3733.62 1898.25Z" fill="#000000" fill-rule="nonzero" fill-opacity="1"/></g></g></g><g clip-path="url(#clip2)"><g clip-path="url(#clip3)"><g><path d="M99.0937 275.326 77.0729 275.326 77.0729 649.813 605.573 649.813 605.573 275.326 99.0937 275.326ZM583.552 627.792 99.0937 627.792 99.0937 297.347 583.552 297.347Z" fill="#000000" fill-rule="nonzero" fill-opacity="1" transform="matrix(1.002 0 0 1 1788.89 555)"/><path d="M616.583 220.208 66.0625 220.208C41.7691 220.281 22.0934 239.957 22.0208 264.25L22.0208 660.834C22.0994 685.125 41.7715 704.797 66.0625 704.876L286.271 704.876 286.271 792.959 176.167 792.959 176.167 814.98 506.479 814.98 506.479 792.959 396.375 792.959 396.375 704.876 616.583 704.876C640.874 704.797 660.547 685.125 660.625 660.834L660.625 264.305C660.583 239.99 640.899 220.281 616.583 220.208ZM374.354 793.003 308.292 793.003 308.292 704.92 374.354 704.92ZM638.604 660.878C638.604 673.04 628.745 682.899 616.583 682.899L66.0625 682.899C53.9007 682.899 44.0417 673.04 44.0417 660.878L44.0417 264.305C44.0417 252.143 53.9007 242.284 66.0625 242.284L616.583 242.284C628.745 242.284 638.604 252.143 638.604 264.305Z" fill="#000000" fill-rule="nonzero" fill-opacity="1" transform="matrix(1.002 0 0 1 1788.89 555)"/><path d="M990.937 220.208 770.729 220.208C746.406 220.208 726.687 239.927 726.687 264.25L726.687 770.729C726.687 795.052 746.406 814.771 770.729 814.771L990.937 814.771C1015.26 814.771 1034.98 795.052 1034.98 770.729L1034.98 264.25C1034.98 239.927 1015.26 220.208 990.937 220.208ZM1012.96 770.729C1012.96 782.891 1003.1 792.75 990.937 792.75L770.729 792.75C758.567 792.75 748.708 782.891 748.708 770.729L748.708 264.25C748.708 252.088 758.567 242.229 770.729 242.229L990.937 242.229C1003.1 242.229 1012.96 252.088 1012.96 264.25Z" fill="#000000" fill-rule="nonzero" fill-opacity="1" transform="matrix(1.002 0 0 1 1788.89 555)"/><path d="M792.75 308.292 968.916 308.292 968.916 330.312 792.75 330.312Z" fill="#000000" fill-rule="nonzero" fill-opacity="1" transform="matrix(1.002 0 0 1 1788.89 555)"/><path d="M792.75 374.354 968.916 374.354 968.916 396.375 792.75 396.375Z" fill="#000000" fill-rule="nonzero" fill-opacity="1" transform="matrix(1.002 0 0 1 1788.89 555)"/><path d="M897.349 710.172C897.349 719.293 889.954 726.687 880.833 726.687 871.712 726.687 864.317 719.293 864.317 710.172 864.317 701.05 871.712 693.656 880.833 693.656 889.954 693.656 897.349 701.05 897.349 710.172Z" fill="#000000" fill-rule="nonzero" fill-opacity="1" transform="matrix(1.002 0 0 1 1788.89 555)"/></g></g></g><g clip-path="url(#clip4)"><g clip-path="url(#clip5)"><g><path d="M99.0222 275.128 77.0173 275.128 77.0173 649.344 605.136 649.344 605.136 275.128 99.0222 275.128ZM583.131 627.339 99.0222 627.339 99.0222 297.133 583.131 297.133Z" fill="#000000" fill-rule="nonzero" fill-opacity="1" transform="matrix(1 0 0 1.00072 2147.76 555)"/><path d="M616.138 220.049 66.0148 220.049C41.739 220.122 22.0774 239.783 22.0049 264.059L22.0049 660.357C22.0835 684.631 41.7414 704.289 66.0148 704.367L286.064 704.367 286.064 792.387 176.04 792.387 176.04 814.392 506.114 814.392 506.114 792.387 396.089 792.387 396.089 704.367 616.138 704.367C640.412 704.289 660.07 684.631 660.148 660.357L660.148 264.114C660.106 239.816 640.436 220.122 616.138 220.049ZM374.084 792.431 308.069 792.431 308.069 704.411 374.084 704.411ZM638.143 660.401C638.143 672.555 628.292 682.406 616.138 682.406L66.0148 682.406C53.8618 682.406 44.0099 672.555 44.0099 660.401L44.0099 264.114C44.0099 251.961 53.8618 242.109 66.0148 242.109L616.138 242.109C628.292 242.109 638.143 251.961 638.143 264.114Z" fill="#000000" fill-rule="nonzero" fill-opacity="1" transform="matrix(1 0 0 1.00072 2147.76 555)"/><path d="M990.222 220.049 770.173 220.049C745.867 220.049 726.163 239.754 726.163 264.059L726.163 770.173C726.163 794.478 745.867 814.183 770.173 814.183L990.222 814.183C1014.53 814.183 1034.23 794.478 1034.23 770.173L1034.23 264.059C1034.23 239.754 1014.53 220.049 990.222 220.049ZM1012.23 770.173C1012.23 782.326 1002.38 792.178 990.222 792.178L770.173 792.178C758.02 792.178 748.168 782.326 748.168 770.173L748.168 264.059C748.168 251.906 758.02 242.054 770.173 242.054L990.222 242.054C1002.38 242.054 1012.23 251.906 1012.23 264.059Z" fill="#000000" fill-rule="nonzero" fill-opacity="1" transform="matrix(1 0 0 1.00072 2147.76 555)"/><path d="M792.178 308.069 968.217 308.069 968.217 330.074 792.178 330.074Z" fill="#000000" fill-rule="nonzero" fill-opacity="1" transform="matrix(1 0 0 1.00072 2147.76 555)"/><path d="M792.178 374.084 968.217 374.084 968.217 396.089 792.178 396.089Z" fill="#000000" fill-rule="nonzero" fill-opacity="1" transform="matrix(1 0 0 1.00072 2147.76 555)"/><path d="M896.701 709.659C896.701 718.774 889.312 726.163 880.198 726.163 871.083 726.163 863.694 718.774 863.694 709.659 863.694 700.544 871.083 693.156 880.198 693.156 889.312 693.156 896.701 700.544 896.701 709.659Z" fill="#000000" fill-rule="nonzero" fill-opacity="1" transform="matrix(1 0 0 1.00072 2147.76 555)"/></g></g></g><g clip-path="url(#clip6)"><g clip-path="url(#clip7)"><g><path d="M99.0221 275.127 77.0172 275.127 77.0172 649.343 605.135 649.343 605.135 275.127 99.0221 275.127ZM583.13 627.338 99.0221 627.338 99.0221 297.132 583.13 297.132Z" fill="#000000" fill-rule="nonzero" fill-opacity="1" transform="matrix(1 0 0 1.00072 2504.76 561)"/><path d="M616.138 220.049 66.0148 220.049C41.7389 220.122 22.0774 239.783 22.0049 264.059L22.0049 660.357C22.0835 684.63 41.7413 704.288 66.0148 704.366L286.064 704.366 286.064 792.386 176.039 792.386 176.039 814.391 506.113 814.391 506.113 792.386 396.089 792.386 396.089 704.366 616.138 704.366C640.411 704.288 660.069 684.63 660.148 660.357L660.148 264.114C660.106 239.816 640.436 220.122 616.138 220.049ZM374.084 792.43 308.069 792.43 308.069 704.41 374.084 704.41ZM638.143 660.401C638.143 672.554 628.291 682.405 616.138 682.405L66.0148 682.405C53.8618 682.405 44.0098 672.554 44.0098 660.401L44.0098 264.114C44.0098 251.961 53.8618 242.109 66.0148 242.109L616.138 242.109C628.291 242.109 638.143 251.961 638.143 264.114Z" fill="#000000" fill-rule="nonzero" fill-opacity="1" transform="matrix(1 0 0 1.00072 2504.76 561)"/><path d="M990.221 220.049 770.172 220.049C745.867 220.049 726.162 239.753 726.162 264.059L726.162 770.172C726.162 794.478 745.867 814.182 770.172 814.182L990.221 814.182C1014.53 814.182 1034.23 794.478 1034.23 770.172L1034.23 264.059C1034.23 239.753 1014.53 220.049 990.221 220.049ZM1012.23 770.172C1012.23 782.325 1002.37 792.177 990.221 792.177L770.172 792.177C758.019 792.177 748.167 782.325 748.167 770.172L748.167 264.059C748.167 251.906 758.019 242.054 770.172 242.054L990.221 242.054C1002.37 242.054 1012.23 251.906 1012.23 264.059Z" fill="#000000" fill-rule="nonzero" fill-opacity="1" transform="matrix(1 0 0 1.00072 2504.76 561)"/><path d="M792.177 308.069 968.216 308.069 968.216 330.074 792.177 330.074Z" fill="#000000" fill-rule="nonzero" fill-opacity="1" transform="matrix(1 0 0 1.00072 2504.76 561)"/><path d="M792.177 374.084 968.216 374.084 968.216 396.089 792.177 396.089Z" fill="#000000" fill-rule="nonzero" fill-opacity="1" transform="matrix(1 0 0 1.00072 2504.76 561)"/><path d="M896.7 709.659C896.7 718.773 889.311 726.162 880.197 726.162 871.082 726.162 863.693 718.773 863.693 709.659 863.693 700.544 871.082 693.155 880.197 693.155 889.311 693.155 896.7 700.544 896.7 709.659Z" fill="#000000" fill-rule="nonzero" fill-opacity="1" transform="matrix(1 0 0 1.00072 2504.76 561)"/></g></g></g><g clip-path="url(#clip8)"><g clip-path="url(#clip9)"><g><path d="M99.0938 275.327 77.0729 275.327 77.0729 649.813 605.573 649.813 605.573 275.327 99.0938 275.327ZM583.552 627.792 99.0938 627.792 99.0938 297.347 583.552 297.347Z" fill="#000000" fill-rule="nonzero" fill-opacity="1" transform="matrix(1.002 0 0 1 1788.89 -52.9999)"/><path d="M616.583 220.208 66.0625 220.208C41.7691 220.281 22.0934 239.957 22.0208 264.25L22.0208 660.834C22.0994 685.125 41.7715 704.798 66.0625 704.876L286.271 704.876 286.271 792.959 176.167 792.959 176.167 814.98 506.479 814.98 506.479 792.959 396.375 792.959 396.375 704.876 616.583 704.876C640.875 704.798 660.547 685.125 660.625 660.834L660.625 264.305C660.583 239.99 640.899 220.281 616.583 220.208ZM374.354 793.003 308.292 793.003 308.292 704.92 374.354 704.92ZM638.604 660.878C638.604 673.04 628.745 682.899 616.583 682.899L66.0625 682.899C53.9007 682.899 44.0417 673.04 44.0417 660.878L44.0417 264.305C44.0417 252.143 53.9007 242.284 66.0625 242.284L616.583 242.284C628.745 242.284 638.604 252.143 638.604 264.305Z" fill="#000000" fill-rule="nonzero" fill-opacity="1" transform="matrix(1.002 0 0 1 1788.89 -52.9999)"/><path d="M990.938 220.208 770.729 220.208C746.406 220.208 726.688 239.927 726.688 264.25L726.688 770.729C726.688 795.052 746.406 814.771 770.729 814.771L990.938 814.771C1015.26 814.771 1034.98 795.052 1034.98 770.729L1034.98 264.25C1034.98 239.927 1015.26 220.208 990.938 220.208ZM1012.96 770.729C1012.96 782.891 1003.1 792.75 990.938 792.75L770.729 792.75C758.567 792.75 748.708 782.891 748.708 770.729L748.708 264.25C748.708 252.088 758.567 242.229 770.729 242.229L990.938 242.229C1003.1 242.229 1012.96 252.088 1012.96 264.25Z" fill="#000000" fill-rule="nonzero" fill-opacity="1" transform="matrix(1.002 0 0 1 1788.89 -52.9999)"/><path d="M792.75 308.292 968.917 308.292 968.917 330.312 792.75 330.312Z" fill="#000000" fill-rule="nonzero" fill-opacity="1" transform="matrix(1.002 0 0 1 1788.89 -52.9999)"/><path d="M792.75 374.354 968.917 374.354 968.917 396.375 792.75 396.375Z" fill="#000000" fill-rule="nonzero" fill-opacity="1" transform="matrix(1.002 0 0 1 1788.89 -52.9999)"/><path d="M897.349 710.172C897.349 719.293 889.955 726.688 880.833 726.688 871.712 726.688 864.318 719.293 864.318 710.172 864.318 701.051 871.712 693.656 880.833 693.656 889.955 693.656 897.349 701.051 897.349 710.172Z" fill="#000000" fill-rule="nonzero" fill-opacity="1" transform="matrix(1.002 0 0 1 1788.89 -52.9999)"/></g></g></g><g clip-path="url(#clip10)"><g clip-path="url(#clip11)"><g><path d="M99.0222 275.128 77.0173 275.128 77.0173 649.344 605.136 649.344 605.136 275.128 99.0222 275.128ZM583.131 627.339 99.0222 627.339 99.0222 297.133 583.131 297.133Z" fill="#000000" fill-rule="nonzero" fill-opacity="1" transform="matrix(1 0 0 1.00072 2147.76 -52.9999)"/><path d="M616.138 220.049 66.0148 220.049C41.739 220.122 22.0774 239.783 22.0049 264.059L22.0049 660.357C22.0835 684.631 41.7414 704.289 66.0148 704.367L286.064 704.367 286.064 792.387 176.04 792.387 176.04 814.392 506.114 814.392 506.114 792.387 396.089 792.387 396.089 704.367 616.138 704.367C640.412 704.289 660.07 684.631 660.148 660.357L660.148 264.114C660.106 239.816 640.436 220.122 616.138 220.049ZM374.084 792.431 308.069 792.431 308.069 704.411 374.084 704.411ZM638.143 660.401C638.143 672.555 628.292 682.406 616.138 682.406L66.0148 682.406C53.8618 682.406 44.0099 672.555 44.0099 660.401L44.0099 264.114C44.0099 251.961 53.8618 242.109 66.0148 242.109L616.138 242.109C628.292 242.109 638.143 251.961 638.143 264.114Z" fill="#000000" fill-rule="nonzero" fill-opacity="1" transform="matrix(1 0 0 1.00072 2147.76 -52.9999)"/><path d="M990.222 220.049 770.173 220.049C745.867 220.049 726.163 239.754 726.163 264.059L726.163 770.173C726.163 794.478 745.867 814.183 770.173 814.183L990.222 814.183C1014.53 814.183 1034.23 794.478 1034.23 770.173L1034.23 264.059C1034.23 239.754 1014.53 220.049 990.222 220.049ZM1012.23 770.173C1012.23 782.326 1002.38 792.178 990.222 792.178L770.173 792.178C758.02 792.178 748.168 782.326 748.168 770.173L748.168 264.059C748.168 251.906 758.02 242.054 770.173 242.054L990.222 242.054C1002.38 242.054 1012.23 251.906 1012.23 264.059Z" fill="#000000" fill-rule="nonzero" fill-opacity="1" transform="matrix(1 0 0 1.00072 2147.76 -52.9999)"/><path d="M792.178 308.069 968.217 308.069 968.217 330.074 792.178 330.074Z" fill="#000000" fill-rule="nonzero" fill-opacity="1" transform="matrix(1 0 0 1.00072 2147.76 -52.9999)"/><path d="M792.178 374.084 968.217 374.084 968.217 396.089 792.178 396.089Z" fill="#000000" fill-rule="nonzero" fill-opacity="1" transform="matrix(1 0 0 1.00072 2147.76 -52.9999)"/><path d="M896.701 709.659C896.701 718.774 889.312 726.163 880.198 726.163 871.083 726.163 863.694 718.774 863.694 709.659 863.694 700.544 871.083 693.156 880.198 693.156 889.312 693.156 896.701 700.544 896.701 709.659Z" fill="#000000" fill-rule="nonzero" fill-opacity="1" transform="matrix(1 0 0 1.00072 2147.76 -52.9999)"/></g></g></g><g clip-path="url(#clip12)"><g clip-path="url(#clip13)"><g><path d="M99.0221 275.127 77.0172 275.127 77.0172 649.343 605.135 649.343 605.135 275.127 99.0221 275.127ZM583.13 627.338 99.0221 627.338 99.0221 297.132 583.13 297.132Z" fill="#000000" fill-rule="nonzero" fill-opacity="1" transform="matrix(1 0 0 1.00072 2504.76 -47.0001)"/><path d="M616.138 220.049 66.0148 220.049C41.7389 220.122 22.0774 239.783 22.0049 264.059L22.0049 660.357C22.0835 684.63 41.7413 704.288 66.0148 704.366L286.064 704.366 286.064 792.386 176.039 792.386 176.039 814.391 506.113 814.391 506.113 792.386 396.089 792.386 396.089 704.366 616.138 704.366C640.411 704.288 660.069 684.63 660.148 660.357L660.148 264.114C660.106 239.816 640.436 220.122 616.138 220.049ZM374.084 792.43 308.069 792.43 308.069 704.41 374.084 704.41ZM638.143 660.401C638.143 672.554 628.291 682.405 616.138 682.405L66.0148 682.405C53.8618 682.405 44.0098 672.554 44.0098 660.401L44.0098 264.114C44.0098 251.961 53.8618 242.109 66.0148 242.109L616.138 242.109C628.291 242.109 638.143 251.961 638.143 264.114Z" fill="#000000" fill-rule="nonzero" fill-opacity="1" transform="matrix(1 0 0 1.00072 2504.76 -47.0001)"/><path d="M990.221 220.049 770.172 220.049C745.867 220.049 726.162 239.753 726.162 264.059L726.162 770.172C726.162 794.478 745.867 814.182 770.172 814.182L990.221 814.182C1014.53 814.182 1034.23 794.478 1034.23 770.172L1034.23 264.059C1034.23 239.753 1014.53 220.049 990.221 220.049ZM1012.23 770.172C1012.23 782.325 1002.37 792.177 990.221 792.177L770.172 792.177C758.019 792.177 748.167 782.325 748.167 770.172L748.167 264.059C748.167 251.906 758.019 242.054 770.172 242.054L990.221 242.054C1002.37 242.054 1012.23 251.906 1012.23 264.059Z" fill="#000000" fill-rule="nonzero" fill-opacity="1" transform="matrix(1 0 0 1.00072 2504.76 -47.0001)"/><path d="M792.177 308.069 968.216 308.069 968.216 330.074 792.177 330.074Z" fill="#000000" fill-rule="nonzero" fill-opacity="1" transform="matrix(1 0 0 1.00072 2504.76 -47.0001)"/><path d="M792.177 374.084 968.216 374.084 968.216 396.089 792.177 396.089Z" fill="#000000" fill-rule="nonzero" fill-opacity="1" transform="matrix(1 0 0 1.00072 2504.76 -47.0001)"/><path d="M896.7 709.659C896.7 718.773 889.311 726.162 880.197 726.162 871.082 726.162 863.693 718.773 863.693 709.659 863.693 700.544 871.082 693.155 880.197 693.155 889.311 693.155 896.7 700.544 896.7 709.659Z" fill="#000000" fill-rule="nonzero" fill-opacity="1" transform="matrix(1 0 0 1.00072 2504.76 -47.0001)"/></g></g></g><g clip-path="url(#clip14)"><g clip-path="url(#clip15)"><g><path d="M89.039 247.39 69.2526 247.39 69.2526 583.878 544.127 583.878 544.127 247.39 89.039 247.39ZM524.341 564.092 89.039 564.092 89.039 267.176 524.341 267.176Z" fill="#000000" fill-rule="nonzero" fill-opacity="1" transform="matrix(1 0 0 1.00026 3297.25 514)"/><path d="M554.021 197.865 59.3593 197.865C37.5309 197.93 19.8516 215.609 19.7864 237.437L19.7864 593.781C19.8571 615.608 37.5331 633.284 59.3593 633.354L257.224 633.354 257.224 712.5 158.292 712.5 158.292 732.287 455.088 732.287 455.088 712.5 356.156 712.5 356.156 633.354 554.021 633.354C575.847 633.284 593.523 615.608 593.594 593.781L593.594 237.487C593.556 215.639 575.869 197.93 554.021 197.865ZM336.37 712.54 277.01 712.54 277.01 633.394 336.37 633.394ZM573.807 593.821C573.807 604.749 564.949 613.607 554.021 613.607L59.3593 613.607C48.4316 613.607 39.5729 604.749 39.5729 593.821L39.5729 237.487C39.5729 226.559 48.4316 217.7 59.3593 217.7L554.021 217.7C564.949 217.7 573.807 226.559 573.807 237.487Z" fill="#000000" fill-rule="nonzero" fill-opacity="1" transform="matrix(1 0 0 1.00026 3297.25 514)"/><path d="M890.39 197.865 692.526 197.865C670.671 197.865 652.953 215.582 652.953 237.437L652.953 692.526C652.953 714.381 670.671 732.099 692.526 732.099L890.39 732.099C912.245 732.099 929.963 714.381 929.963 692.526L929.963 237.437C929.963 215.582 912.245 197.865 890.39 197.865ZM910.177 692.526C910.177 703.454 901.318 712.312 890.39 712.312L692.526 712.312C681.598 712.312 672.739 703.454 672.739 692.526L672.739 237.437C672.739 226.509 681.598 217.651 692.526 217.651L890.39 217.651C901.318 217.651 910.177 226.509 910.177 237.437Z" fill="#000000" fill-rule="nonzero" fill-opacity="1" transform="matrix(1 0 0 1.00026 3297.25 514)"/><path d="M712.312 277.01 870.604 277.01 870.604 296.797 712.312 296.797Z" fill="#000000" fill-rule="nonzero" fill-opacity="1" transform="matrix(1 0 0 1.00026 3297.25 514)"/><path d="M712.312 336.37 870.604 336.37 870.604 356.156 712.312 356.156Z" fill="#000000" fill-rule="nonzero" fill-opacity="1" transform="matrix(1 0 0 1.00026 3297.25 514)"/><path d="M806.298 638.113C806.298 646.309 799.654 652.953 791.458 652.953 783.262 652.953 776.618 646.309 776.618 638.113 776.618 629.917 783.262 623.273 791.458 623.273 799.654 623.273 806.298 629.917 806.298 638.113Z" fill="#000000" fill-rule="nonzero" fill-opacity="1" transform="matrix(1 0 0 1.00026 3297.25 514)"/></g></g></g><g><g><g><path d="M3971.69 1908.56 3971.69 1702.31C3971.69 1682.22 3920.33 1671.37 3872 1671.37 3823.67 1671.37 3772.31 1682.22 3772.31 1702.31L3772.31 1908.56C3772.31 1928.66 3823.67 1939.5 3872 1939.5 3920.33 1939.5 3971.69 1928.66 3971.69 1908.56ZM3872 1678.25C3925.12 1678.25 3964.81 1690.97 3964.81 1702.31 3964.81 1713.66 3925.12 1726.37 3872 1726.37 3818.88 1726.37 3779.19 1713.66 3779.19 1702.31 3779.19 1690.97 3818.88 1678.25 3872 1678.25ZM3779.19 1714.21C3794.76 1726.65 3834.3 1733.25 3872 1733.25 3909.7 1733.25 3949.24 1726.65 3964.81 1714.21L3964.81 1771.06C3964.81 1782.41 3925.12 1795.12 3872 1795.12 3818.88 1795.12 3779.19 1782.41 3779.19 1771.06ZM3779.19 1782.96C3794.76 1795.4 3834.3 1802 3872 1802 3909.7 1802 3949.24 1795.4 3964.81 1782.96L3964.81 1839.81C3964.81 1851.16 3925.12 1863.87 3872 1863.87 3818.88 1863.87 3779.19 1851.16 3779.19 1839.81ZM3779.19 1908.56 3779.19 1851.71C3794.76 1864.15 3834.3 1870.75 3872 1870.75 3909.7 1870.75 3949.24 1864.15 3964.81 1851.71L3964.81 1908.56C3964.81 1919.91 3925.12 1932.62 3872 1932.62 3818.88 1932.62 3779.19 1919.91 3779.19 1908.56Z" fill="#000000" fill-rule="nonzero" fill-opacity="1"/><path d="M3947.62 1760.75C3947.62 1764.55 3944.55 1767.62 3940.75 1767.62 3936.95 1767.62 3933.88 1764.55 3933.88 1760.75 3933.88 1756.95 3936.95 1753.87 3940.75 1753.87 3944.55 1753.87 3947.62 1756.95 3947.62 1760.75Z" fill="#000000" fill-rule="nonzero" fill-opacity="1"/><path d="M3947.62 1829.5C3947.62 1833.3 3944.55 1836.37 3940.75 1836.37 3936.95 1836.37 3933.88 1833.3 3933.88 1829.5 3933.88 1825.7 3936.95 1822.62 3940.75 1822.62 3944.55 1822.62 3947.62 1825.7 3947.62 1829.5Z" fill="#000000" fill-rule="nonzero" fill-opacity="1"/><path d="M3947.62 1898.25C3947.62 1902.05 3944.55 1905.12 3940.75 1905.12 3936.95 1905.12 3933.88 1902.05 3933.88 1898.25 3933.88 1894.45 3936.95 1891.37 3940.75 1891.37 3944.55 1891.37 3947.62 1894.45 3947.62 1898.25Z" fill="#000000" fill-rule="nonzero" fill-opacity="1"/></g></g></g><g><g><g><path d="M4180.69 1900.56 4180.69 1694.31C4180.69 1674.22 4129.33 1663.38 4081 1663.38 4032.67 1663.38 3981.31 1674.22 3981.31 1694.31L3981.31 1900.56C3981.31 1920.66 4032.67 1931.5 4081 1931.5 4129.33 1931.5 4180.69 1920.66 4180.69 1900.56ZM4081 1670.25C4134.12 1670.25 4173.81 1682.97 4173.81 1694.31 4173.81 1705.66 4134.12 1718.38 4081 1718.38 4027.88 1718.38 3988.19 1705.66 3988.19 1694.31 3988.19 1682.97 4027.88 1670.25 4081 1670.25ZM3988.19 1706.21C4003.76 1718.65 4043.3 1725.25 4081 1725.25 4118.7 1725.25 4158.24 1718.65 4173.81 1706.21L4173.81 1763.06C4173.81 1774.41 4134.12 1787.12 4081 1787.12 4027.88 1787.12 3988.19 1774.41 3988.19 1763.06ZM3988.19 1774.96C4003.76 1787.4 4043.3 1794 4081 1794 4118.7 1794 4158.24 1787.4 4173.81 1774.96L4173.81 1831.81C4173.81 1843.16 4134.12 1855.88 4081 1855.88 4027.88 1855.88 3988.19 1843.16 3988.19 1831.81ZM3988.19 1900.56 3988.19 1843.71C4003.76 1856.15 4043.3 1862.75 4081 1862.75 4118.7 1862.75 4158.24 1856.15 4173.81 1843.71L4173.81 1900.56C4173.81 1911.91 4134.12 1924.62 4081 1924.62 4027.88 1924.62 3988.19 1911.91 3988.19 1900.56Z" fill="#000000" fill-rule="nonzero" fill-opacity="1"/><path d="M4156.62 1752.75C4156.62 1756.55 4153.55 1759.62 4149.75 1759.62 4145.95 1759.62 4142.88 1756.55 4142.88 1752.75 4142.88 1748.95 4145.95 1745.88 4149.75 1745.88 4153.55 1745.88 4156.62 1748.95 4156.62 1752.75Z" fill="#000000" fill-rule="nonzero" fill-opacity="1"/><path d="M4156.62 1821.5C4156.62 1825.3 4153.55 1828.38 4149.75 1828.38 4145.95 1828.38 4142.88 1825.3 4142.88 1821.5 4142.88 1817.7 4145.95 1814.62 4149.75 1814.62 4153.55 1814.62 4156.62 1817.7 4156.62 1821.5Z" fill="#000000" fill-rule="nonzero" fill-opacity="1"/><path d="M4156.62 1890.25C4156.62 1894.05 4153.55 1897.12 4149.75 1897.12 4145.95 1897.12 4142.88 1894.05 4142.88 1890.25 4142.88 1886.45 4145.95 1883.38 4149.75 1883.38 4153.55 1883.38 4156.62 1886.45 4156.62 1890.25Z" fill="#000000" fill-rule="nonzero" fill-opacity="1"/></g></g></g></g></g></svg>